<svg width="32" height="32" viewBox="0 0 32 32" fill="none" xmlns="http://www.w3.org/2000/svg">
<g clip-path="url(#clip0_6_38)">
<path fill-rule="evenodd" clip-rule="evenodd" d="M29 15H3C3.45456 8.29752 9.10114 3 16 3C22.8989 3 28.5454 8.29752 29 15Z" fill="#E3313D"/>
<path fill-rule="evenodd" clip-rule="evenodd" d="M3 18L29 18C28.5454 24.1439 22.8989 29 16 29C9.10114 29 3.45457 24.1439 3 18Z" fill="white"/>
<path fill-rule="evenodd" clip-rule="evenodd" d="M16 32C24.8366 32 32 24.8366 32 16C32 7.16344 24.8366 0 16 0C7.16344 0 0 7.16344 0 16C0 24.8366 7.16344 32 16 32ZM16 29C23.1797 29 29 23.1797 29 16C29 8.8203 23.1797 3 16 3C8.8203 3 3 8.8203 3 16C3 23.1797 8.8203 29 16 29Z" fill="#09090B"/>
<rect x="3" y="15" width="26" height="3" fill="#09090B"/>
<circle cx="16" cy="16" r="5" fill="#09090B"/>
<circle cx="16" cy="16" r="2.5" fill="white"/>
</g>
<defs>
<clipPath id="clip0_6_38">
<rect width="32" height="32"/>
</clipPath>
</defs>
</svg>
